<?xml version="1.0" encoding="UTF-8" standalone="no"?>
<svg width="20px" height="20px" viewBox="0 0 20 20" version="1.1" xmlns="http://www.w3.org/2000/svg" xmlns:xlink="http://www.w3.org/1999/xlink">
    <!-- Generator: Sketch 46.2 (44496) - http://www.bohemiancoding.com/sketch -->
    <title>Clip 751</title>
    <desc>Created with Sketch.</desc>
    <defs>
        <path d="M10,0 C15.5139319,0 20,4.48575851 20,9.9996904 C20,15.5139319 15.5139319,19.9996904 10,19.9996904 C4.48606811,19.9996904 0,15.5139319 0,9.9996904 C0,4.48575851 4.48606811,0 10,0 Z M10,18.6371517 C14.7625387,18.6371517 18.6374613,14.7622291 18.6374613,9.9996904 C18.6374613,5.2374613 14.7625387,1.3625387 10,1.3625387 C5.2374613,1.3625387 1.3628483,5.2374613 1.3628483,9.9996904 C1.3628483,14.7622291 5.2374613,18.6371517 10,18.6371517 Z M11.155418,10.0058824 L14.6275542,13.4780186 C14.7854489,13.6362229 14.8643963,13.8244582 14.8643963,14.0498452 C14.8643963,14.274613 14.7854489,14.4690402 14.6275542,14.6272446 C14.4693498,14.7854489 14.2749226,14.8643963 14.0498452,14.8643963 C13.8247678,14.8643963 13.6362229,14.7854489 13.4780186,14.6272446 L10.006192,11.1551084 L6.53405573,14.6272446 C6.37585139,14.7854489 6.18142415,14.8643963 5.9504644,14.8643963 C5.7250774,14.8643963 5.53065015,14.7854489 5.37244582,14.6272446 C5.21455108,14.4690402 5.13560372,14.274613 5.13560372,14.0498452 C5.13560372,13.8244582 5.21455108,13.6362229 5.37244582,13.4780186 L8.84458204,9.99380805 L5.37244582,6.53374613 C5.21455108,6.3755418 5.13560372,6.18111455 5.13560372,5.9498452 C5.13560372,5.7250774 5.21455108,5.53065015 5.37244582,5.37244582 C5.53065015,5.21424149 5.71919505,5.13529412 5.9504644,5.13529412 C6.1752322,5.13529412 6.36965944,5.21424149 6.53405573,5.37244582 L10.006192,8.84458204 L13.4780186,5.38452012 C13.6362229,5.22631579 13.8247678,5.14767802 14.0498452,5.14767802 C14.2749226,5.14767802 14.4693498,5.22631579 14.6275542,5.38452012 C14.7854489,5.54272446 14.8643963,5.73095975 14.8643963,5.95603715 C14.8643963,6.1873065 14.7854489,6.3755418 14.6275542,6.53374613 L11.155418,10.0058824 Z" id="path-1"></path>
    </defs>
    <g id="Symbols" stroke="none" stroke-width="1" fill="none" fill-rule="evenodd">
        <g id="rechazado">
            <mask id="mask-2" fill="white">
                <use xlink:href="#path-1"></use>
            </mask>
            <use id="Clip-751" fill="#D7000F" xlink:href="#path-1"></use>
        </g>
    </g>
</svg>