<?xml version="1.0" encoding="UTF-8" standalone="no"?>
<svg width="20px" height="20px" viewBox="0 0 20 20" version="1.1" xmlns="http://www.w3.org/2000/svg" xmlns:xlink="http://www.w3.org/1999/xlink">
    <!-- Generator: Sketch 46.2 (44496) - http://www.bohemiancoding.com/sketch -->
    <title>Group 2</title>
    <desc>Created with Sketch.</desc>
    <defs>
        <circle id="path-1" cx="10" cy="10" r="10"></circle>
    </defs>
    <g id="01_REEM_Historico" stroke="none" stroke-width="1" fill="none" fill-rule="evenodd">
        <g id="002_Dktop" transform="translate(-77.000000, -761.000000)">
            <g id="Group-2" transform="translate(77.000000, 761.000000)">
                <g id="Oval-8">
                    <use fill="#FFFFFF" fill-rule="evenodd" xlink:href="#path-1"></use>
                    <circle stroke="#007033" stroke-width="1.5" cx="10" cy="10" r="9.25"></circle>
                </g>
                <path d="M13.1453901,13.5434397 C12.6489337,14.0274847 11.9332198,14.3274226 10.998227,14.4432624 L10.998227,15.8333333 L9.7570922,15.8333333 L9.7570922,14.4804965 C9.14479599,14.4473994 8.56146849,14.3398354 8.0070922,14.1578014 C7.4527159,13.9757674 7.00591186,13.7523654 6.66666667,13.4875887 L7.34929078,11.9734043 C7.66371316,12.2050839 8.03191278,12.3995264 8.45390071,12.5567376 C8.87588863,12.7139488 9.31028145,12.8132386 9.7570922,12.8546099 L9.7570922,10.7819149 C9.16961881,10.6412523 8.67316988,10.4840434 8.2677305,10.3102837 C7.86229112,10.136524 7.52305101,9.88209387 7.25,9.54698582 C6.97694899,9.21187776 6.84042553,8.76714225 6.84042553,8.21276596 C6.84042553,7.52600129 7.09071854,6.93646818 7.59131206,6.44414894 C8.09190558,5.95182969 8.81382507,5.65189179 9.7570922,5.54432624 L9.7570922,4.16666667 L10.998227,4.16666667 L10.998227,5.51950355 C12.0159625,5.60224628 12.8557887,5.85460782 13.5177305,6.27659574 L12.8971631,7.80319149 C12.2765926,7.44739775 11.6436202,7.23226988 10.998227,7.15780142 L10.998227,9.2677305 C11.5774261,9.40011887 12.0676694,9.55112208 12.4689716,9.72074468 C12.8702739,9.89036728 13.2074454,10.1427288 13.4804965,10.4778369 C13.7535475,10.8129449 13.8900709,11.2535434 13.8900709,11.7996454 C13.8900709,12.4781358 13.6418465,13.0593947 13.1453901,13.5434397 Z M9.07446809,8.62234043 C9.23167927,8.75472879 9.45921837,8.8664298 9.7570922,8.95744681 L9.7570922,7.19503546 C9.44266982,7.26950392 9.21099365,7.38741054 9.06205674,7.54875887 C8.91311982,7.71010719 8.83865248,7.89834408 8.83865248,8.11347518 C8.83865248,8.320332 8.9172569,8.48995206 9.07446809,8.62234043 Z M11.6684397,12.4822695 C11.8173766,12.3333326 11.891844,12.1554384 11.891844,11.9485816 C11.891844,11.7417247 11.8153081,11.5721047 11.662234,11.4397163 C11.50916,11.3073279 11.2878265,11.1914899 10.998227,11.0921986 L10.998227,12.8049645 C11.2961008,12.7387704 11.5195028,12.6312064 11.6684397,12.4822695 Z" id="$" fill="#00662A"></path>
            </g>
        </g>
    </g>
</svg>