<?xml version="1.0" encoding="UTF-8" standalone="no"?>
<svg width="20px" height="20px" viewBox="0 0 20 20" version="1.1" xmlns="http://www.w3.org/2000/svg" xmlns:xlink="http://www.w3.org/1999/xlink">
    <!-- Generator: Sketch 46.2 (44496) - http://www.bohemiancoding.com/sketch -->
    <title>pendiente</title>
    <desc>Created with Sketch.</desc>
    <defs></defs>
    <g id="01_REEM_Historico" stroke="none" stroke-width="1" fill="none" fill-rule="evenodd">
        <g id="001_Dktop" transform="translate(-76.000000, -518.000000)" fill-rule="nonzero" fill="#A4219B">
            <g id="fila-2" transform="translate(68.000000, 517.000000)">
                <path d="M17.75,20.5 C12.3652237,20.5 8,16.1347763 8,10.75 C8,5.36522369 12.3652237,1 17.75,1 C23.1347763,1 27.5,5.36522369 27.5,10.75 C27.5,16.1347763 23.1347763,20.5 17.75,20.5 Z M17.75,14.5 C15.6789322,14.5 14,12.8210678 14,10.75 C14,8.67893219 15.6789322,7 17.75,7 C19.8210678,7 21.5,8.67893219 21.5,10.75 C21.5,12.8210678 19.8210678,14.5 17.75,14.5 Z M17.75,19 C22.3063492,19 26,15.3063492 26,10.75 C26,6.19365081 22.3063492,2.5 17.75,2.5 C13.1936508,2.5 9.5,6.19365081 9.5,10.75 C9.5,15.3063492 13.1936508,19 17.75,19 Z M17.75,13 C18.9926407,13 20,11.9926407 20,10.75 C20,9.50735931 18.9926407,8.5 17.75,8.5 C16.5073593,8.5 15.5,9.50735931 15.5,10.75 C15.5,11.9926407 16.5073593,13 17.75,13 Z" id="pendiente"></path>
            </g>
        </g>
    </g>
</svg>